<svg version="1.2" xmlns="http://www.w3.org/2000/svg" viewBox="0 0 18 12" width="18" height="12"><defs><clipPath clipPathUnits="userSpaceOnUse" id="cp1"><path d="m-887-3585h1920v5365h-1920z"/></clipPath></defs><style>.a{opacity:.6;fill:#3e3d3d}</style><g clip-path="url(#cp1)"><path class="a" d="m11.4 11q-0.2-0.2-0.2-0.6 0-0.3 0.2-0.5l4.1-4-4.1-4.1c-0.3-0.3-0.3-0.8 0-1.1 0.3-0.3 0.8-0.3 1.1 0l4.6 4.6q0.2 0.2 0.2 0.6 0 0.3-0.2 0.5l-4.6 4.6q-0.2 0.2-0.5 0.2-0.3 0-0.6-0.2z"/><path class="a" d="m0.5 5.9c0-0.5 0.3-0.8 0.8-0.8h13.7c0.4 0 0.8 0.3 0.8 0.8 0 0.4-0.4 0.7-0.8 0.7h-13.7c-0.5 0-0.8-0.3-0.8-0.7z"/></g></svg>